<?xml version="1.0" encoding="UTF-8" standalone="no"?>
<!-- Created with Inkscape (http://www.inkscape.org/) -->

<svg
   xmlns:dc="http://purl.org/dc/elements/1.1/"
   xmlns:cc="http://creativecommons.org/ns#"
   xmlns:rdf="http://www.w3.org/1999/02/22-rdf-syntax-ns#"
   xmlns:svg="http://www.w3.org/2000/svg"
   xmlns="http://www.w3.org/2000/svg"
   xmlns:sodipodi="http://sodipodi.sourceforge.net/DTD/sodipodi-0.dtd"
   xmlns:inkscape="http://www.inkscape.org/namespaces/inkscape"
   version="1.1"
   id="svg2"
   xml:space="preserve"
   width="7559.0532"
   height="2554.6667"
   viewBox="0 0 7559.0532 2554.6667"
   sodipodi:docname="logo.svg"
   inkscape:version="0.92.5 (2060ec1f9f, 2020-04-08)"><metadata
     id="metadata8"><rdf:RDF><cc:Work
         rdf:about=""><dc:format>image/svg+xml</dc:format><dc:type
           rdf:resource="http://purl.org/dc/dcmitype/StillImage" /><dc:title></dc:title></cc:Work></rdf:RDF></metadata><defs
     id="defs6"><clipPath
       clipPathUnits="userSpaceOnUse"
       id="clipPath18"><path
         d="M 0,1916 H 5669.29 V 0 H 0 Z"
         id="path16"
         inkscape:connector-curvature="0" /></clipPath></defs><sodipodi:namedview
     pagecolor="#ffffff"
     bordercolor="#666666"
     borderopacity="1"
     objecttolerance="10"
     gridtolerance="10"
     guidetolerance="10"
     inkscape:pageopacity="0"
     inkscape:pageshadow="2"
     inkscape:window-width="1920"
     inkscape:window-height="1025"
     id="namedview4"
     showgrid="false"
     inkscape:zoom="0.049477096"
     inkscape:cx="3779.5266"
     inkscape:cy="1277.3334"
     inkscape:window-x="0"
     inkscape:window-y="0"
     inkscape:window-maximized="1"
     inkscape:current-layer="g10" /><g
     id="g10"
     inkscape:groupmode="layer"
     inkscape:label="Logo - mi despertar"
     transform="matrix(1.3333333,0,0,-1.3333333,0,2554.6667)"><g
       id="g12"><g
         id="g14"
         clip-path="url(#clipPath18)"><g
           id="g20"
           transform="translate(1014.6724,1028.5322)"><path
             d="m 0,0 114.703,537.312 c 93.77,23.338 154.715,-47.906 158.534,-52.501 L 47.095,-15.393 C 32.147,-8.715 16.391,-3.518 0,0 m -98.151,0.6 -112.638,537.732 c 9.381,7.027 80.533,56.845 162.802,17.654 l -0.829,-75.757 V 78.241 l 0.772,-72.925 c -0.56,0.006 -1.114,0.025 -1.67,0.025 C -66.307,5.398 -82.508,3.76 -98.151,0.6 m -91.378,-39.799 c 13.339,9.535 27.689,17.743 42.867,24.411 -20.162,45.889 -215.105,501.292 -222.991,501.618 -89.733,3.838 -135.225,-66.344 -143.92,-81.392 z m 279.346,-0.873 c 14.005,-10.147 26.855,-21.778 38.337,-34.652 l 410.114,364.652 c 0,0 -24.795,94.251 -121.625,112.595 z"
             style="fill:#d870ac;fill-opacity:1;fill-rule:evenodd;stroke:none"
             id="path22"
             inkscape:connector-curvature="0" /></g><g
           id="g24"
           transform="translate(965.8564,1457.0537)"><path
             d="m 0,0 c -0.529,-0.024 -1.059,-0.039 -1.597,-0.039 -18.147,0 -32.86,14.715 -32.86,32.863 0,18.149 14.713,32.855 32.86,32.855 0.587,0 1.168,-0.009 1.751,-0.042 L 0,51.707 Z m -75.513,17.57 c 4.688,-8.123 1.905,-18.495 -6.212,-23.179 -8.104,-4.682 -18.483,-1.906 -23.165,6.214 -4.684,8.108 -1.902,18.481 6.21,23.165 8.11,4.687 18.486,1.906 23.167,-6.2 m -56.73,-49.707 c 9.59,-9.248 12.735,-23.613 7.567,-36.138 z m -46.916,-223.21 c -1.639,1.773 -3.109,3.75 -4.367,5.928 -2.571,4.46 -3.986,9.274 -4.322,14.087 z m 99.851,-29.503 c 5.942,-4.962 7.817,-13.466 4.306,-20.528 z m 44.842,-36.744 c 0.009,18.149 14.713,32.855 32.861,32.855 0.538,0 1.076,-0.015 1.605,-0.036 v -61.505 l 0.04,-4.132 c -0.545,-0.029 -1.092,-0.039 -1.645,-0.039 -18.148,0 -32.852,14.703 -32.861,32.857 m 114.476,39.197 c 7.854,3.565 17.283,0.653 21.674,-6.971 4.691,-8.123 1.915,-18.484 -6.202,-23.18 -7.104,-4.095 -15.943,-2.473 -21.172,3.441 z m 55.427,20.951 c 15.713,-9.073 35.814,-3.696 44.893,12.024 9.066,15.719 3.69,35.815 -12.033,44.891 -15.722,9.072 -35.809,3.682 -44.887,-12.033 -9.067,-15.714 -3.693,-35.81 12.027,-44.882 m 40.167,100.096 c -9.372,0 -16.958,7.59 -16.958,16.954 0,9.372 7.586,16.964 16.958,16.964 9.369,0 16.965,-7.587 16.965,-16.964 -0.007,-9.351 -7.596,-16.954 -16.965,-16.954 m -7.304,77.11 c -15.124,-8.728 -34.281,-4.071 -43.799,10.267 l 9.817,45.963 c 0.366,0.231 0.735,0.463 1.109,0.678 15.723,9.078 35.824,3.695 44.903,-12.022 9.072,-15.712 3.69,-35.808 -12.03,-44.886 M 0,-263.1 l -1.597,-0.021 c -36.658,0 -69.431,16.617 -91.211,42.73 l -22.85,109.076 c 14.323,49.475 59.966,85.662 114.061,85.662 L 0,-25.672 Z m 117.131,118.712 c 0,-25.977 -8.349,-50.013 -22.508,-69.561 l 20.025,93.815 c 1.627,-7.826 2.483,-15.94 2.483,-24.254"
             style="fill:#fff200;fill-opacity:1;fill-rule:evenodd;stroke:none"
             id="path26"
             inkscape:connector-curvature="0" /></g><g
           id="g28"
           transform="translate(868.0103,1013.7441)"><path
             d="m 0,0 -222.991,501.618 c 3.844,4.57 65.234,75.426 158.864,51.502 L 48.511,15.381 C 31.63,11.967 15.396,6.765 0,0 m 98.618,20.104 -0.772,72.925 v 401.988 l 0.829,75.757 c 82.511,38.676 153.351,-11.591 162.69,-18.676 L 146.662,14.788 c -15.511,3.33 -31.578,5.159 -48.044,5.316 m 95.145,-20.708 c 15.133,-6.772 29.437,-15.061 42.716,-24.68 l 326.826,442.596 c -8.6,15.096 -53.652,85.556 -143.406,82.287 z M -42.867,-24.411 -366.911,420.227 C -463.856,402.499 -489.237,308.396 -489.237,308.396 L -81.428,-58.813 c 11.564,12.801 24.495,24.347 38.561,34.402"
             style="fill:#80206b;fill-opacity:1;fill-rule:evenodd;stroke:none"
             id="path30"
             inkscape:connector-curvature="0" /></g><g
           id="g32"
           transform="translate(997.1143,1489.8779)"><path
             d="m 0,0 c 0,-17.612 -13.857,-31.992 -31.258,-32.824 v 51.707 l 0.154,13.93 C -13.775,31.902 0,17.562 0,0 m -169.9,-60.15 c 2.378,-1.367 4.512,-2.995 6.4,-4.811 l 7.566,-36.139 c -0.553,-1.334 -1.191,-2.646 -1.933,-3.931 -9.078,-15.717 -29.167,-21.097 -44.881,-12.033 -15.729,9.078 -21.106,29.173 -12.027,44.886 9.069,15.723 29.162,21.1 44.875,12.028 m -40.16,-100.096 c 9.363,0 16.953,-7.594 16.953,-16.966 0,-9.359 -7.59,-16.953 -16.953,-16.953 -9.372,0 -16.975,7.594 -16.975,16.953 0,9.372 7.603,16.966 16.975,16.966 m 7.303,-77.109 c -15.72,-9.077 -21.097,-29.172 -12.027,-44.888 9.078,-15.717 29.171,-21.1 44.884,-12.028 15.714,9.08 21.103,29.168 12.033,44.888 -9.078,15.71 -29.167,21.1 -44.89,12.028 m 66.601,-84.837 c 4.681,8.116 15.06,10.892 23.174,6.206 0.868,-0.5 1.669,-1.069 2.416,-1.688 l 4.3,-20.528 c -0.157,-0.318 -0.326,-0.636 -0.505,-0.944 -4.684,-8.123 -15.057,-10.902 -23.174,-6.217 -8.11,4.687 -10.895,15.06 -6.211,23.171 m 104.898,0.592 C -13.857,-322.437 0,-336.809 0,-354.418 c 0,-17.603 -13.838,-31.959 -31.218,-32.818 l -0.04,4.132 z m 72.308,-17.554 c -4.682,8.104 -1.908,18.482 6.212,23.168 0.489,0.277 0.986,0.535 1.49,0.757 l -5.703,-26.703 c -0.741,0.836 -1.416,1.764 -1.999,2.778 m 52.194,232.357 9.816,45.963 c -14.843,-9.362 -19.76,-28.865 -10.908,-44.203 0.348,-0.606 0.713,-1.19 1.092,-1.76 m -22.808,74.568 c -4.682,-8.11 -15.055,-10.886 -23.165,-6.205 -8.12,4.685 -10.896,15.054 -6.209,23.168 4.678,8.114 15.051,10.893 23.168,6.211 8.111,-4.683 10.896,-15.062 6.206,-23.174 m -194.501,-220.986 c -17.181,20.592 -27.523,47.089 -27.523,76.003 0,11.48 1.636,22.575 4.672,33.072 z m 187.43,6.442 C 42.084,-276.162 7.672,-295.41 -31.258,-295.924 v 237.428 c 56.552,-0.747 103.559,-41.023 114.649,-94.462 z"
             style="fill:#f99c1b;fill-opacity:1;fill-rule:evenodd;stroke:none"
             id="path34"
             inkscape:connector-curvature="0" /></g><g
           id="g36"
           transform="translate(1104.4897,988.46)"><path
             d="M 0,0 -140.19,-193.386 38.337,-34.646 C 26.854,-21.777 14.004,-10.146 0,0"
             style="fill:#fff200;fill-opacity:1;fill-rule:evenodd;stroke:none"
             id="path38"
             inkscape:connector-curvature="0" /></g><g
           id="g40"
           transform="translate(1014.6724,1028.5322)"><path
             d="M 0,0 -50.37,-233.458 47.101,-15.393 C 32.147,-8.715 16.391,-3.52 0,0"
             style="fill:#fff200;fill-opacity:1;fill-rule:evenodd;stroke:none"
             id="path42"
             inkscape:connector-curvature="0" /></g><g
           id="g44"
           transform="translate(1061.7734,1013.1396)"><path
             d="M 0,0 -97.474,-218.065 42.716,-24.68 C 29.443,-15.061 15.133,-6.771 0,0"
             style="fill:#f99c1b;fill-opacity:1;fill-rule:evenodd;stroke:none"
             id="path46"
             inkscape:connector-curvature="0" /></g><g
           id="g48"
           transform="translate(966.6279,1033.8486)"><path
             d="m 0,0 -2.377,-226.143 0.048,-12.631 50.373,233.458 C 32.534,-1.986 16.466,-0.163 0,0"
             style="fill:#f99c1b;fill-opacity:1;fill-rule:evenodd;stroke:none"
             id="path50"
             inkscape:connector-curvature="0" /></g><g
           id="g52"
           transform="translate(825.1431,989.333)"><path
             d="M 0,0 C -14.065,-10.059 -26.997,-21.601 -38.561,-34.402 L 138.972,-194.259 Z"
             style="fill:#f99c1b;fill-opacity:1;fill-rule:evenodd;stroke:none"
             id="path54"
             inkscape:connector-curvature="0" /></g><g
           id="g56"
           transform="translate(825.1431,989.333)"><path
             d="M 0,0 138.972,-194.259 42.867,24.411 C 27.689,17.743 13.339,9.535 0,0"
             style="fill:#fff200;fill-opacity:1;fill-rule:evenodd;stroke:none"
             id="path58"
             inkscape:connector-curvature="0" /></g><g
           id="g60"
           transform="translate(964.9585,1033.8789)"><path
             d="m 0,0 c -16.593,0.052 -32.794,-1.587 -48.438,-4.747 l 47.594,-234.055 0.127,12.629 2.386,226.149 C 1.11,-0.024 0.556,-0.006 0,0"
             style="fill:#fff200;fill-opacity:1;fill-rule:evenodd;stroke:none"
             id="path62"
             inkscape:connector-curvature="0" /></g><g
           id="g64"
           transform="translate(868.0103,1013.7441)"><path
             d="M 0,0 96.104,-218.67 48.504,15.381 C 31.63,11.967 15.396,6.765 0,0"
             style="fill:#f99c1b;fill-opacity:1;fill-rule:evenodd;stroke:none"
             id="path66"
             inkscape:connector-curvature="0" /></g><g
           id="g68"
           transform="translate(970.3896,575.0654)"><path
             d="m 0,0 -13.751,0.033 c -0.326,0.006 -0.595,0.217 -0.595,0.481 l 0.961,244.871 c 0.003,0.26 0.276,0.48 0.605,0.471 l 13.751,-0.027 c 0.326,0 0.596,-0.224 0.596,-0.481 L 0.605,0.48 C 0.599,0.214 0.33,0 0,0"
             style="fill:#b164a8;fill-opacity:1;fill-rule:evenodd;stroke:none"
             id="path70"
             inkscape:connector-curvature="0" /></g><g
           id="g72"
           transform="translate(956.0435,584.3096)"><path
             d="m 0,0 c -31.887,-46.877 -45.897,-104.363 -47.292,-160.531 -0.163,-6.801 10.409,-6.834 10.573,-0.033 1.348,54.401 14.954,109.81 45.83,155.202 C 12.946,0.275 3.811,5.606 0,0"
             style="fill:#b164a8;fill-opacity:1;fill-rule:evenodd;stroke:none"
             id="path74"
             inkscape:connector-curvature="0" /></g><g
           id="g76"
           transform="translate(956.2153,582.9248)"><path
             d="m 0,0 c -11.643,-51.404 -18.232,-103.771 -20.137,-156.437 -0.246,-6.804 10.324,-6.828 10.572,-0.03 1.869,51.743 8.314,103.117 19.744,153.629 C 11.683,3.783 1.5,6.65 0,0"
             style="fill:#b164a8;fill-opacity:1;fill-rule:evenodd;stroke:none"
             id="path78"
             inkscape:connector-curvature="0" /></g><g
           id="g80"
           transform="translate(961.959,578.957)"><path
             d="m 0,0 c 30.059,-44.798 43.341,-99.142 44.799,-152.604 0.188,-6.793 10.757,-6.858 10.576,-0.034 C 53.868,-97.402 40.211,-40.989 9.147,5.304 5.379,10.927 -3.805,5.67 0,0"
             style="fill:#b164a8;fill-opacity:1;fill-rule:evenodd;stroke:none"
             id="path82"
             inkscape:connector-curvature="0" /></g><g
           id="g84"
           transform="translate(960.7183,580.1006)"><path
             d="m 0,0 c 11.117,-50.562 17.238,-101.957 18.787,-153.694 0.202,-6.783 10.78,-6.847 10.574,-0.033 C 27.783,-101.068 21.521,-48.68 10.21,2.781 8.747,9.426 -1.457,6.643 0,0"
             style="fill:#b164a8;fill-opacity:1;fill-rule:evenodd;stroke:none"
             id="path86"
             inkscape:connector-curvature="0" /></g><g
           id="g88"
           transform="translate(958.2778,581.5156)"><path
             d="m 0,0 c -0.163,-51.698 -0.32,-103.396 -0.484,-155.094 -0.024,-6.804 10.548,-6.846 10.57,-0.036 0.164,51.701 0.321,103.399 0.49,155.097 C 10.594,6.769 0.022,6.816 0,0"
             style="fill:#b164a8;fill-opacity:1;fill-rule:evenodd;stroke:none"
             id="path90"
             inkscape:connector-curvature="0" /></g><g
           id="g92"
           transform="translate(1028.7256,809.6201)"><path
             d="m 0,0 c -0.115,-35.606 -29.068,-64.377 -64.677,-64.263 -35.601,0.109 -64.381,29.068 -64.267,64.671 0.112,35.613 29.069,64.381 64.675,64.267 C -28.663,64.569 0.106,35.606 0,0"
             style="fill:#a795c7;fill-opacity:1;fill-rule:evenodd;stroke:none"
             id="path94"
             inkscape:connector-curvature="0" /></g><g
           id="g96"
           transform="translate(905.3916,636.7881)"><path
             d="m 0,0 c 16.503,7.635 30.112,19.475 43.276,30.922 l -3.161,3.631 3.965,2.837 C 29.147,58.284 5.044,72.875 -20.389,76.422 -44.672,79.801 -73.983,70.09 -80.515,45.4 c -4.908,-18.531 6.427,-39.742 25.796,-48.283 6.841,-3.021 14.471,-4.53 22.472,-4.554 C -21.813,-7.467 -10.756,-4.976 0,0 M -21.913,65.515 C -1.27,62.645 18.378,51.534 31.687,35.449 20.447,25.744 8.728,16.17 -4.621,9.998 -20.754,2.539 -37.399,1.514 -50.273,7.196 c -14.298,6.31 -23.093,22.181 -19.594,35.39 4.125,15.589 22.412,23.53 40.194,23.478 2.613,-0.013 5.214,-0.187 7.76,-0.549"
             style="fill:#b164a8;fill-opacity:1;fill-rule:evenodd;stroke:none"
             id="path98"
             inkscape:connector-curvature="0" /></g><g
           id="g100"
           transform="translate(915.9009,649.6826)"><path
             d="m 0,0 c 9.65,4.458 17.461,11.262 25.025,17.84 l -3.357,3.861 4.186,2.994 c -8.816,12.332 -23.042,20.946 -38.057,23.037 -14.73,2.054 -32.578,-4.003 -36.619,-19.291 -3.069,-11.579 3.926,-24.795 15.926,-30.098 4.17,-1.833 8.802,-2.755 13.65,-2.765 C -13.001,-4.442 -6.399,-2.961 0,0 M -13.721,36.828 C -3.412,35.389 6.435,30.129 13.512,22.448 7.845,17.628 1.932,13.021 -4.618,9.991 -13.116,6.066 -21.804,5.492 -28.454,8.422 c -6.175,2.728 -11.555,10.289 -9.726,17.202 2.005,7.581 11.504,11.507 20.504,11.481 1.336,-0.004 2.664,-0.095 3.955,-0.277"
             style="fill:#b164a8;fill-opacity:1;fill-rule:evenodd;stroke:none"
             id="path102"
             inkscape:connector-curvature="0" /></g><g
           id="g104"
           transform="translate(1076.7246,633.1943)"><path
             d="M 0,0 C 19.427,8.422 30.892,29.559 26.099,48.123 19.721,72.852 -9.534,82.748 -33.825,79.526 -59.285,76.139 -83.479,61.696 -98.542,40.893 l 3.944,-2.861 -3.176,-3.614 c 13.086,-11.528 26.616,-23.455 43.073,-31.19 10.73,-5.042 21.772,-7.606 32.205,-7.633 C -14.5,-4.437 -6.861,-2.973 0,0 m -32.373,68.604 c 19.88,2.655 43.187,-5.32 47.811,-23.233 C 18.853,32.142 9.965,16.324 -4.379,10.107 -17.292,4.504 -33.927,5.635 -50.013,13.198 c -13.309,6.257 -24.97,15.898 -36.145,25.669 13.407,16.012 33.124,26.99 53.785,29.737"
             style="fill:#b164a8;fill-opacity:1;fill-rule:evenodd;stroke:none"
             id="path106"
             inkscape:connector-curvature="0" /></g><g
           id="g108"
           transform="translate(1044.4873,647.5264)"><path
             d="m 0,0 c 12.03,5.217 19.113,18.393 16.116,29.99 -3.949,15.309 -21.75,21.481 -36.505,19.519 -15.029,-1.997 -29.31,-10.517 -38.2,-22.8 l 4.172,-3.021 -3.383,-3.834 c 7.521,-6.629 15.299,-13.485 24.913,-18 6.378,-3 12.97,-4.524 19.216,-4.542 C -8.824,-2.71 -4.182,-1.814 0,0 M -18.937,38.597 C -8.958,39.937 3.2,35.963 5.45,27.238 7.24,20.316 1.809,12.786 -4.385,10.104 -11.047,7.216 -19.729,7.838 -28.203,11.82 c -6.532,3.071 -12.417,7.713 -18.051,12.573 7.115,7.632 16.999,12.834 27.317,14.204"
             style="fill:#b164a8;fill-opacity:1;fill-rule:evenodd;stroke:none"
             id="path110"
             inkscape:connector-curvature="0" /></g><g
           id="g112"
           transform="translate(961.9707,630.207)"><path
             d="m 0,0 -39.278,39.522 c -0.943,0.948 -0.934,2.496 0.009,3.438 L 0.27,82.224 c 0.942,0.943 2.491,0.937 3.428,-0.01 L 42.964,42.698 c 0.95,-0.95 0.941,-2.492 -0.009,-3.435 L 3.444,-0.009 C 2.492,-0.953 0.94,-0.946 0,0"
             style="fill:#80206b;fill-opacity:1;fill-rule:evenodd;stroke:none"
             id="path114"
             inkscape:connector-curvature="0" /></g><g
           id="g116"
           transform="translate(2233.1514,813.3115)"><path
             d="m 0,0 h 5.384 v -4.481 c -8.373,-1.195 -17.714,-1.795 -28.028,-1.795 -10.313,0 -23.016,2.243 -38.107,6.724 -15.092,4.488 -28.768,12.855 -41.022,25.109 -25.109,25.108 -40.352,57.687 -45.73,97.741 l -27.352,199.514 -93.254,-210.725 c -8.373,-18.237 -13.455,-33.482 -15.244,-45.73 h -4.486 l -116.12,252.418 -19.73,-222.829 c -0.6,-5.081 0.968,-9.567 4.708,-13.454 3.735,-3.887 7.844,-5.827 12.33,-5.827 h 7.173 v -4.032 h -86.979 v 4.48 h 7.173 c 8.071,0 15.168,2.465 21.298,7.401 6.124,4.929 9.935,11.432 11.432,19.503 l 28.249,244.801 c -26.303,51.709 -57.838,77.563 -94.607,77.563 -3.286,0 -6.718,-0.152 -10.307,-0.448 v 4.481 c 8.07,2.092 14.643,3.14 19.724,3.14 5.081,0 10.611,-0.228 16.589,-0.676 5.979,-0.448 13.001,-1.87 21.071,-4.259 8.07,-2.39 15.692,-5.903 22.865,-10.535 7.173,-4.633 13.449,-9.417 18.832,-14.347 5.379,-4.929 10.46,-10.383 15.244,-16.362 8.07,-10.762 14.497,-21.076 19.281,-30.936 L -281.558,122.4 -160.952,392.754 h 4.033 l 41.697,-265.424 c 6.275,-41.849 19.8,-73.524 40.573,-95.049 C -53.876,10.762 -28.995,0 0,0"
             style="fill:#231f20;fill-opacity:1;fill-rule:nonzero;stroke:none"
             id="path118"
             inkscape:connector-curvature="0" /></g><g
           id="g120"
           transform="translate(2301.7515,890.4248)"><path
             d="M 0,0 H 5.827 V -4.48 H -92.357 V 0 h 5.827 c 7.767,0 14.491,2.763 20.173,8.293 5.675,5.529 8.519,12.184 8.519,19.956 v 269.007 l -47.974,-2.686 c -30.189,-1.795 -45.281,-12.709 -45.281,-32.73 0,-8.076 2.616,-14.951 7.843,-20.627 5.233,-5.682 13.524,-8.822 24.887,-9.416 v -2.687 c -4.184,-0.897 -8.373,-1.346 -12.557,-1.346 -13.151,0 -23.011,5.227 -29.59,15.692 -3.881,5.979 -5.826,12.552 -5.826,19.73 0,25.406 19.281,40.201 57.838,44.384 0.297,0 15.168,0.967 44.605,2.913 29.439,1.941 52.682,4.557 69.72,7.849 l 0.897,-4.486 c -12.854,-2.092 -21.968,-6.427 -27.346,-13 -5.384,-6.578 -8.07,-15.698 -8.07,-27.352 V 28.249 c 0.297,-7.772 3.211,-14.427 8.74,-19.956 C -14.427,2.763 -7.773,0 0,0"
             style="fill:#231f20;fill-opacity:1;fill-rule:nonzero;stroke:none"
             id="path122"
             inkscape:connector-curvature="0" /></g><g
           id="g124"
           transform="translate(2657.7383,1186.335)"><path
             d="m 0,0 v -286.941 h 88.32 c 37.956,0 68.67,13.15 92.135,39.453 23.465,26.303 35.199,60.974 35.199,104.017 0,28.395 -5.306,53.428 -15.918,75.098 -10.611,21.67 -25.556,38.481 -44.832,50.437 C 135.623,-5.979 113.428,0 88.32,0 Z m -144.817,-52.006 c 8.67,25.406 23.162,42.887 43.487,52.455 20.324,9.568 56.34,14.352 108.055,14.352 10.756,0 37.956,-0.449 81.595,-1.347 31.686,-0.897 59.633,-7.772 83.844,-20.627 24.205,-12.854 43.113,-31.011 56.713,-54.471 13.6,-23.464 20.4,-50.741 20.4,-81.827 0,-46.929 -14.871,-84.811 -44.611,-113.654 -29.741,-28.844 -68.519,-43.266 -116.346,-43.266 H -63.671 l 0.449,4.481 h 5.384 c 7.47,0 13.892,2.465 19.275,7.4 5.379,4.93 8.52,10.985 9.417,18.157 V 0 c -37.362,-0.896 -63.816,-6.725 -79.357,-17.48 -8.065,-5.682 -14.195,-11.136 -18.385,-16.369 -4.178,-5.232 -8.513,-11.881 -13,-19.951 z"
             style="fill:#231f20;fill-opacity:1;fill-rule:nonzero;stroke:none"
             id="path126"
             inkscape:connector-curvature="0" /></g><g
           id="g128"
           transform="translate(2957.2363,890.4248)"><path
             d="m 0,0 c 7.768,0 14.416,2.763 19.947,8.293 5.53,5.529 8.444,12.184 8.746,19.956 v 251.077 c 0,7.168 -2.843,13.223 -8.519,18.153 -5.682,4.929 -12.406,7.399 -20.174,7.399 h -5.377 l -0.449,4.486 h 91.012 c 9.263,0 19.356,0.892 30.264,2.687 10.907,1.795 18.607,3.59 23.092,5.385 v -56.494 h -4.485 v 8.071 c 0,7.168 -2.471,13.298 -7.401,18.379 -4.929,5.081 -10.834,7.772 -17.709,8.075 H 57.84 V 156.926 h 85.183 c 5.979,0.297 11.059,2.541 15.245,6.724 4.183,4.184 6.275,9.411 6.275,15.692 v 6.275 h 4.486 v -70.838 h -4.486 v 6.725 c 0,5.978 -2.022,11.059 -6.055,15.243 -4.033,4.185 -9.037,6.428 -15.016,6.73 H 57.84 V 9.417 h 95.496 c 22.119,0 39.006,4.93 50.66,14.794 11.654,9.865 21.373,24.514 29.147,43.941 h 4.48 L 211.617,-4.48 H -5.826 V 0 Z"
             style="fill:#231f20;fill-opacity:1;fill-rule:nonzero;stroke:none"
             id="path130"
             inkscape:connector-curvature="0" /></g><g
           id="g132"
           transform="translate(3250.0039,1005.2041)"><path
             d="m 0,0 c -15.546,-20.324 -23.313,-42.297 -23.313,-65.908 0,-28.098 11.805,-49.914 35.421,-65.455 13.746,-9.265 29.363,-13.903 46.849,-13.903 17.486,0 32.654,3.438 45.508,10.314 24.211,12.557 37.812,33.628 40.801,63.217 0.296,2.091 0.449,4.184 0.449,6.276 0,11.059 -3.065,23.01 -9.195,35.865 -6.129,12.854 -16.065,24.659 -29.811,35.422 L 26.006,69.492 C 8.367,83.244 -0.448,101.028 -0.448,122.85 c 0,21.816 7.021,40.275 21.069,55.368 14.049,15.092 33.033,22.643 56.947,22.643 11.952,0 24.952,-1.498 39.006,-4.481 h 17.936 l 0.89,-55.151 h -4.48 c -0.303,14.345 -5.459,25.631 -15.471,33.853 -10.01,8.217 -22.566,12.33 -37.658,12.33 -15.099,0 -27.726,-5.011 -37.889,-15.021 C 29.74,162.375 24.66,149.521 24.66,133.828 c 0,-15.691 6.572,-28.767 19.731,-39.227 l 82.939,-65.46 c 32.877,-26.006 49.32,-57.389 49.32,-94.152 0,-27.503 -10.914,-51.114 -32.73,-70.839 -18.832,-17.037 -43.936,-25.556 -75.318,-25.556 -19.137,0 -36.174,3.59 -51.116,10.761 -28.097,13.153 -44.988,35.569 -50.664,67.255 -0.898,4.779 -1.342,10.833 -1.342,18.158 0,7.318 2.093,17.335 6.277,30.038 4.184,12.702 12.253,25.481 24.211,38.335 z"
             style="fill:#231f20;fill-opacity:1;fill-rule:nonzero;stroke:none"
             id="path134"
             inkscape:connector-curvature="0" /></g><g
           id="g136"
           transform="translate(3600.6113,1206.9619)"><path
             d="m 0,0 c 26,0 47.67,-6.281 65.012,-18.832 23.312,-16.74 34.972,-42.893 34.972,-78.46 0,-25.708 -7.177,-47.676 -21.523,-65.909 -15.547,-19.427 -37.211,-29.141 -65.006,-29.141 -14.65,0 -27.953,3.509 -39.908,10.536 -11.957,7.022 -18.981,19.054 -21.072,36.092 l 4.039,1.346 c 3.285,-12.855 10.908,-21.821 22.865,-26.903 8.064,-3.589 15.238,-5.377 21.517,-5.377 24.51,0 42.299,9.561 53.358,28.691 8.066,14.049 12.103,30.789 12.103,50.217 0,31.081 -8.669,53.502 -26.005,67.254 -13.153,10.757 -29.887,16.14 -50.211,16.14 -4.789,0 -8.897,-0.226 -12.336,-0.675 -3.438,-0.449 -18.453,-2.915 -45.053,-7.395 v -265.872 c 0.297,-8.075 3.285,-14.8 8.967,-20.179 5.676,-5.383 12.254,-8.07 19.724,-8.07 h 5.827 v -4.481 h -98.184 v 4.481 h 5.828 c 7.469,0 14.047,2.687 19.723,8.07 5.675,5.379 8.666,12.104 8.968,20.179 v 242.559 c 0,7.767 -2.244,13.821 -6.724,18.157 -4.486,4.335 -10.315,6.502 -17.486,6.502 -1.493,0 -2.991,-0.151 -4.481,-0.449 l -5.379,-0.448 -0.898,4.481 c 15.541,1.492 36.39,4.406 62.541,8.74 26.152,4.336 42.369,6.877 48.648,7.622 C -13.896,-0.378 -7.172,0 0,0"
             style="fill:#231f20;fill-opacity:1;fill-rule:nonzero;stroke:none"
             id="path138"
             inkscape:connector-curvature="0" /></g><g
           id="g140"
           transform="translate(3749.0176,890.4248)"><path
             d="m 0,0 c 7.768,0 14.416,2.763 19.945,8.293 5.53,5.529 8.444,12.184 8.746,19.956 v 251.077 c 0,7.168 -2.843,13.223 -8.519,18.153 -5.68,4.929 -12.404,7.399 -20.172,7.399 h -5.379 l -0.449,4.486 h 91.012 c 9.265,0 19.357,0.892 30.265,2.687 10.908,1.795 18.606,3.59 23.092,5.385 v -56.494 h -4.486 v 8.071 c 0,7.168 -2.471,13.298 -7.401,18.379 -4.929,5.081 -10.832,7.772 -17.707,8.075 H 57.838 V 156.926 h 85.183 c 5.979,0.297 11.061,2.541 15.245,6.724 4.183,4.184 6.275,9.411 6.275,15.692 v 6.275 h 4.486 v -70.838 h -4.486 v 6.725 c 0,5.978 -2.021,11.059 -6.055,15.243 -4.031,4.185 -9.037,6.428 -15.015,6.73 H 57.838 V 9.417 h 95.498 c 22.119,0 39.006,4.93 50.66,14.794 11.654,9.865 21.373,24.514 29.145,43.941 h 4.482 L 211.617,-4.48 H -5.828 V 0 Z"
             style="fill:#231f20;fill-opacity:1;fill-rule:nonzero;stroke:none"
             id="path142"
             inkscape:connector-curvature="0" /></g><g
           id="g144"
           transform="translate(4408.9863,809.7275)"><path
             d="m 0,0 c -12.557,-3.287 -23.691,-4.936 -33.406,-4.936 -9.713,0 -18.309,0.6 -25.778,1.795 -7.47,1.201 -15.464,3.514 -23.984,6.946 -8.52,3.443 -16.52,7.4 -23.988,11.882 -7.471,4.492 -14.948,10.016 -22.418,16.588 -13.752,11.061 -26.227,23.017 -37.438,35.871 -11.211,12.854 -32.804,36.99 -64.783,72.407 -31.984,35.416 -53.207,58.957 -63.666,70.616 -10.465,11.653 -18.535,17.784 -24.211,18.384 v 4.48 c 17.336,0 28.918,0.373 34.746,1.119 5.826,0.746 12.028,2.092 18.606,4.038 6.572,1.941 12.103,4.557 16.59,7.849 17.63,11.357 26.453,30.19 26.453,56.492 0,21.817 -4.86,39.303 -14.573,52.455 -9.718,13.152 -23.39,19.875 -41.021,20.178 h -55.596 V 108.946 c 0,-7.475 2.762,-14.053 8.291,-19.729 5.531,-5.682 12.33,-8.52 20.401,-8.52 h 5.379 l 0.449,-4.48 h -98.184 v 4.48 h 5.826 c 7.471,0 14.049,2.688 19.725,8.071 5.676,5.378 8.664,11.957 8.967,19.73 v 248.834 c -0.303,7.768 -3.217,14.416 -8.746,19.945 -5.53,5.531 -12.178,8.298 -19.946,8.298 h -5.826 v 4.487 h 121.053 c 26.305,0 47.449,-7.4 63.439,-22.195 15.989,-14.801 23.991,-34.379 23.991,-58.735 0,-24.362 -7.327,-45.287 -21.975,-62.769 -14.648,-17.486 -32.578,-26.226 -53.801,-26.226 h -0.449 c 10.164,-10.763 21.672,-23.314 34.525,-37.66 51.709,-57.092 84.883,-92.963 99.532,-107.606 14.648,-14.643 27.572,-26.676 38.783,-36.093 C -81.828,29.362 -71.887,22.416 -63.217,17.93 -45.584,8.367 -28.098,3.584 -10.762,3.584 -7.174,3.584 -3.59,3.887 0,4.48 Z"
             style="fill:#231f20;fill-opacity:1;fill-rule:nonzero;stroke:none"
             id="path146"
             inkscape:connector-curvature="0" /></g><g
           id="g148"
           transform="translate(4261.4727,1110.5674)"><path
             d="m 0,0 c -9.266,11.06 -13.898,22.043 -13.898,32.951 0,10.908 2.541,20.324 7.621,28.249 5.082,7.919 13.304,14.644 24.66,20.173 11.357,5.529 24.211,8.297 38.558,8.297 h 183.823 c 9.263,0 19.496,0.893 30.707,2.687 11.211,1.795 19.054,3.589 23.541,5.384 V 41.249 l -4.481,0.448 v 7.621 c 0,7.168 -2.541,13.369 -7.621,18.601 -5.082,5.232 -11.06,7.995 -17.935,8.298 h -85.186 v -268.559 c 0.299,-10.762 5.082,-18.832 14.346,-24.211 4.482,-2.394 9.265,-3.59 14.347,-3.59 h 5.832 v -4.48 h -98.189 v 4.48 h 5.826 c 7.774,0 14.422,2.688 19.951,8.071 5.532,5.379 8.444,11.805 8.743,19.281 V 76.217 H 56.941 c -23.914,0 -41.244,-7.622 -52.005,-22.865 -5.676,-7.774 -8.52,-15.914 -8.52,-24.433 0,-8.519 2.395,-17.411 7.172,-26.676 z"
             style="fill:#231f20;fill-opacity:1;fill-rule:nonzero;stroke:none"
             id="path150"
             inkscape:connector-curvature="0" /></g><g
           id="g152"
           transform="translate(4634.5,1011.9287)"><path
             d="M 0,0 H 113.432 L 78.016,104.465 c -6.875,20.022 -13.157,35.715 -18.832,47.076 z m -47.975,203.104 c 19.428,8.065 38.11,12.103 56.045,12.103 14.946,0 30.34,-5.529 46.184,-16.59 8.664,-5.978 18.379,-17.632 29.141,-34.968 7.173,-11.956 16.293,-33.627 27.351,-65.01 l 54.697,-155.131 c 12.553,-34.67 25.325,-62.244 38.33,-82.72 13.006,-20.475 24.887,-35.865 35.645,-46.184 10.756,-10.308 21.967,-17.557 33.625,-21.741 11.656,-4.183 21.299,-6.275 28.92,-6.275 7.621,0 14.422,0.6 20.4,1.795 l 0.449,-4.487 c -14.345,-4.779 -28.394,-7.173 -42.146,-7.173 -13.752,0 -27.498,3.513 -41.248,10.535 -13.752,7.033 -26.602,16.816 -38.559,29.368 -25.707,26.005 -47.523,65.605 -65.459,118.811 l -17.482,51.114 H -4.93 l -30.935,-79.806 c -1.498,-3.589 -2.244,-7.173 -2.244,-10.763 0,-3.587 1.568,-7.399 4.709,-11.431 3.134,-4.038 7.994,-6.055 14.572,-6.055 h 3.584 v -4.48 h -90.113 v 4.48 h 4.031 c 7.174,0 14.195,2.168 21.07,6.503 6.877,4.336 12.551,10.833 17.039,19.503 l 111.19,266.32 c -16.141,23.017 -36.168,34.526 -60.077,34.526 -10.761,0 -22.271,-2.244 -34.525,-6.731 z"
             style="fill:#231f20;fill-opacity:1;fill-rule:nonzero;stroke:none"
             id="path154"
             inkscape:connector-curvature="0" /></g><g
           id="g156"
           transform="translate(5268.4668,809.7275)"><path
             d="m 0,0 c -12.557,-3.287 -23.691,-4.936 -33.406,-4.936 -9.713,0 -18.307,0.6 -25.778,1.795 -7.47,1.201 -15.464,3.514 -23.984,6.946 -8.52,3.443 -16.52,7.4 -23.988,11.882 -7.471,4.492 -14.948,10.016 -22.418,16.588 -13.75,11.061 -26.227,23.017 -37.438,35.871 -11.211,12.854 -32.804,36.99 -64.783,72.407 -31.984,35.416 -53.207,58.957 -63.666,70.616 -10.465,11.653 -18.535,17.784 -24.211,18.384 v 4.48 c 17.336,0 28.92,0.373 34.746,1.119 5.826,0.746 12.028,2.092 18.606,4.038 6.574,1.941 12.103,4.557 16.59,7.849 17.63,11.357 26.455,30.19 26.455,56.492 0,21.817 -4.862,39.303 -14.575,52.455 -9.718,13.152 -23.388,19.875 -41.021,20.178 h -55.596 V 108.946 c 0,-7.475 2.762,-14.053 8.293,-19.729 5.529,-5.682 12.33,-8.52 20.399,-8.52 h 5.379 l 0.449,-4.48 h -98.184 v 4.48 h 5.826 c 7.471,0 14.049,2.688 19.725,8.071 5.676,5.378 8.664,11.957 8.967,19.73 v 248.834 c -0.303,7.768 -3.217,14.416 -8.746,19.945 -5.53,5.531 -12.178,8.298 -19.946,8.298 h -5.826 v 4.487 h 121.053 c 26.305,0 47.449,-7.4 63.439,-22.195 15.989,-14.801 23.991,-34.379 23.991,-58.735 0,-24.362 -7.325,-45.287 -21.975,-62.769 -14.648,-17.486 -32.578,-26.226 -53.799,-26.226 h -0.449 c 10.162,-10.763 21.67,-23.314 34.523,-37.66 51.709,-57.092 84.883,-92.963 99.532,-107.606 14.648,-14.643 27.572,-26.676 38.783,-36.093 C -81.828,29.362 -71.887,22.416 -63.217,17.93 -45.584,8.367 -28.098,3.584 -10.762,3.584 -7.174,3.584 -3.59,3.887 0,4.48 Z"
             style="fill:#231f20;fill-opacity:1;fill-rule:nonzero;stroke:none"
             id="path158"
             inkscape:connector-curvature="0" /></g><g
           id="g160"
           transform="translate(2598.1353,584.6631)"><path
             d="m 0,0 c 32.07,4.138 49.657,25.519 49.657,59.658 0,31.726 -17.242,48.279 -48.968,49.313 l -38.277,-0.69 -0.69,-107.592 z m 2.759,124.145 c 41.726,0 65.176,-22.416 65.176,-63.107 0,-47.934 -28.622,-76.212 -78.281,-76.212 h -28.277 v -13.448 l 0.689,-67.935 h -17.931 l 1.034,66.901 -1.034,153.455 z"
             style="fill:#80206b;fill-opacity:1;fill-rule:nonzero;stroke:none"
             id="path162"
             inkscape:connector-curvature="0" /></g><g
           id="g164"
           transform="translate(2815.3843,699.4971)"><path
             d="m 0,0 -3.103,-16.553 -3.448,-1.035 c -13.449,8.621 -28.623,12.76 -41.382,12.76 -30.691,0 -47.588,-22.07 -47.588,-41.382 0,-48.968 102.763,-42.761 102.763,-106.557 0,-32.76 -28.277,-60.348 -69.658,-60.348 -18.277,0 -39.313,5.173 -55.865,15.517 l 2.069,18.278 2.414,1.035 c 15.862,-13.794 36.553,-20.001 52.761,-20.001 31.381,0 50.348,21.725 50.348,43.45 0,51.382 -102.419,43.795 -102.419,107.247 0,32.07 27.242,57.934 67.245,57.934 C -33.794,10.345 -17.586,7.932 0,0"
             style="fill:#80206b;fill-opacity:1;fill-rule:nonzero;stroke:none"
             id="path166"
             inkscape:connector-curvature="0" /></g><g
           id="g168"
           transform="translate(2891.9414,488.1064)"><path
             d="m 0,0 h -17.933 l 1.035,66.9 -1.035,153.455 H 0.344 L -0.69,67.935 Z"
             style="fill:#80206b;fill-opacity:1;fill-rule:nonzero;stroke:none"
             id="path170"
             inkscape:connector-curvature="0" /></g><g
           id="g172"
           transform="translate(3097.1211,691.9092)"><path
             d="m 0,0 -3.795,-16.207 -2.758,-0.345 C -21.727,-4.482 -40.348,2.76 -61.039,2.76 c -48.968,0 -75.865,-33.795 -75.865,-96.557 0,-62.762 26.552,-96.213 73.452,-96.213 21.38,0 42.761,7.932 60.347,21.727 l 2.759,-1.035 -1.379,-16.898 c -19.312,-12.759 -40.692,-19.655 -62.762,-19.655 -57.933,0 -90.695,39.656 -90.695,111.039 0,72.418 34.141,113.109 94.832,113.109 C -37.934,18.277 -16.553,11.726 0,0"
             style="fill:#80206b;fill-opacity:1;fill-rule:nonzero;stroke:none"
             id="path174"
             inkscape:connector-curvature="0" /></g><g
           id="g176"
           transform="translate(3136.7773,598.8018)"><path
             d="m 0,0 c 0,-64.141 25.863,-97.591 74.832,-97.591 50.002,0 77.244,33.794 77.244,98.625 0,62.763 -25.863,95.178 -75.176,95.178 C 26.555,96.212 0,63.106 0,0 m 170.354,3.448 c 0,-74.831 -34.829,-116.212 -96.557,-116.212 -58.969,0 -91.729,40.002 -91.729,111.039 0,72.763 34.485,113.455 96.212,113.455 59.314,0 92.074,-38.968 92.074,-108.282"
             style="fill:#80206b;fill-opacity:1;fill-rule:nonzero;stroke:none"
             id="path178"
             inkscape:connector-curvature="0" /></g><g
           id="g180"
           transform="translate(3462.6563,692.5996)"><path
             d="m 0,0 -36.898,1.034 h -26.897 l -1.035,-137.593 0.689,-67.934 h -17.931 l 1.035,66.9 -1.035,138.627 h -26.899 L -146.559,0 l -1.378,2.069 1.724,13.793 146.213,0 1.725,-2.068 z"
             style="fill:#80206b;fill-opacity:1;fill-rule:nonzero;stroke:none"
             id="path182"
             inkscape:connector-curvature="0" /></g><g
           id="g184"
           transform="translate(3623.6953,488.1064)"><path
             d="m 0,0 h -116.213 l 1.035,66.9 -1.035,153.455 H -0.346 l 1.381,-2.068 -2.07,-14.139 -51.383,0.69 -45.518,-0.345 -0.689,-83.107 43.105,-0.345 36.899,0.345 1.379,-1.725 -1.725,-14.139 -79.658,0.345 -0.346,-37.932 0.69,-52.416 44.486,-0.345 54.139,1.034 1.381,-2.069 z"
             style="fill:#80206b;fill-opacity:1;fill-rule:nonzero;stroke:none"
             id="path186"
             inkscape:connector-curvature="0" /></g><g
           id="g188"
           transform="translate(3731.6309,589.4912)"><path
             d="m 0,0 c 27.932,7.586 43.105,26.897 43.105,56.555 0,30.691 -17.242,46.553 -48.968,47.588 L -44.141,103.453 -44.83,0.689 Z m 73.107,-97.246 v -2.414 c -5.173,-2.414 -10.002,-3.449 -15.519,-4.484 l -2.758,1.38 C 34.828,-74.143 15.518,-44.83 -1.725,-15.174 H -45.176 V -33.45 l 0.69,-67.935 h -17.932 l 1.035,66.901 -1.035,153.455 58.625,0.345 c 41.725,0 65.174,-21.725 65.174,-61.727 0,-32.07 -17.242,-56.555 -47.934,-68.624 18.278,-29.313 38.28,-57.934 59.66,-86.211"
             style="fill:#80206b;fill-opacity:1;fill-rule:nonzero;stroke:none"
             id="path190"
             inkscape:connector-curvature="0" /></g><g
           id="g192"
           transform="translate(3920.2598,687.7725)"><path
             d="m 0,0 h -2.07 l -44.83,-117.593 43.105,-0.345 44.83,0.345 z m 67.934,-199.666 -4.829,18.621 -16.552,47.59 -52.416,0.689 -47.244,-0.689 -17.932,-46.899 -5.172,-19.312 H -94.834 L -10.691,20.689 H 9.654 l 76.901,-220.355 z"
             style="fill:#80206b;fill-opacity:1;fill-rule:nonzero;stroke:none"
             id="path194"
             inkscape:connector-curvature="0" /></g><g
           id="g196"
           transform="translate(4106.125,584.6631)"><path
             d="m 0,0 c 32.07,4.138 49.658,25.519 49.658,59.658 0,31.726 -17.242,48.279 -48.967,49.313 l -38.279,-0.69 -0.689,-107.592 z m 2.76,124.145 c 41.726,0 65.176,-22.416 65.176,-63.107 0,-47.934 -28.623,-76.212 -78.28,-76.212 h -28.277 v -13.448 l 0.689,-67.935 h -17.931 l 1.033,66.901 -1.033,153.455 z"
             style="fill:#80206b;fill-opacity:1;fill-rule:nonzero;stroke:none"
             id="path198"
             inkscape:connector-curvature="0" /></g><g
           id="g200"
           transform="translate(4241.6465,488.1064)"><path
             d="m 0,0 h -17.932 l 1.036,66.9 -1.036,153.455 H 0.346 L -0.689,67.935 Z"
             style="fill:#80206b;fill-opacity:1;fill-rule:nonzero;stroke:none"
             id="path202"
             inkscape:connector-curvature="0" /></g><g
           id="g204"
           transform="translate(4375.7891,687.7725)"><path
             d="m 0,0 h -2.068 l -44.83,-117.593 43.105,-0.345 44.83,0.345 z m 67.936,-199.666 -4.829,18.621 -16.552,47.59 -52.416,0.689 -47.244,-0.689 -17.934,-46.899 -5.172,-19.312 H -94.832 L -10.689,20.689 H 9.656 l 76.901,-220.355 z"
             style="fill:#80206b;fill-opacity:1;fill-rule:nonzero;stroke:none"
             id="path206"
             inkscape:connector-curvature="0" /></g><g
           id="g208"
           transform="translate(1742.6753,812.3037)"><path
             d="m 0,0 c 0,0 1.276,0.1 3.667,0.286 2.393,0.158 5.901,0.449 10.366,0.703 4.465,0.269 9.886,0.627 16.105,0.914 6.219,0.318 13.236,0.679 20.889,0.981 15.308,0.624 33.168,1.171 52.304,1.537 4.783,0.08 9.647,0.162 14.57,0.244 4.924,0.059 9.907,0.118 14.93,0.178 10.045,0.112 20.251,0.127 30.457,0.156 10.205,-0.028 20.411,-0.036 30.457,-0.148 5.023,-0.035 10.005,-0.094 14.929,-0.175 4.923,-0.081 9.787,-0.162 14.571,-0.241 19.135,-0.364 36.995,-0.911 52.303,-1.537 7.654,-0.305 14.67,-0.663 20.889,-0.985 6.219,-0.29 11.641,-0.646 16.105,-0.918 4.465,-0.256 7.974,-0.548 10.366,-0.707 C 325.299,0.1 326.575,0 326.575,0 c 0,0 -1.276,-0.1 -3.667,-0.288 -2.392,-0.159 -5.901,-0.451 -10.366,-0.707 -4.464,-0.272 -9.886,-0.628 -16.105,-0.918 -6.219,-0.322 -13.235,-0.68 -20.889,-0.985 -15.308,-0.626 -33.168,-1.173 -52.303,-1.537 -4.784,-0.079 -9.648,-0.16 -14.571,-0.241 -4.924,-0.081 -9.906,-0.14 -14.929,-0.175 -10.046,-0.112 -20.252,-0.12 -30.457,-0.148 -10.206,0.029 -20.412,0.044 -30.457,0.156 -5.023,0.06 -10.006,0.119 -14.93,0.178 -4.923,0.082 -9.787,0.164 -14.57,0.244 -19.136,0.366 -36.996,0.913 -52.304,1.537 -7.653,0.302 -14.67,0.663 -20.889,0.981 -6.219,0.287 -11.64,0.645 -16.105,0.914 C 9.568,-0.735 6.06,-0.444 3.667,-0.286 1.276,-0.1 0,0 0,0"
             style="fill:#80206b;fill-opacity:1;fill-rule:nonzero;stroke:none"
             id="path210"
             inkscape:connector-curvature="0" /></g><g
           id="g212"
           transform="translate(4482.6875,812.3037)"><path
             d="m 0,0 c 0,0 1.184,0.1 3.402,0.286 2.219,0.158 5.473,0.449 9.616,0.703 4.141,0.269 9.17,0.627 14.939,0.914 5.77,0.318 12.278,0.679 19.379,0.981 14.2,0.624 30.768,1.171 48.518,1.537 4.438,0.08 8.95,0.162 13.517,0.244 4.567,0.076 9.19,0.145 13.85,0.178 9.318,0.112 18.785,0.127 28.253,0.156 9.467,-0.028 18.934,-0.036 28.253,-0.148 4.66,-0.035 9.283,-0.094 13.849,-0.175 4.568,-0.081 9.079,-0.162 13.517,-0.241 17.751,-0.364 34.318,-0.911 48.518,-1.537 7.101,-0.305 13.61,-0.663 19.379,-0.985 5.769,-0.29 10.798,-0.646 14.94,-0.918 4.142,-0.256 7.396,-0.548 9.615,-0.707 C 301.764,0.1 302.947,0 302.947,0 c 0,0 -1.183,-0.1 -3.402,-0.288 -2.219,-0.159 -5.473,-0.451 -9.615,-0.707 -4.142,-0.272 -9.171,-0.628 -14.94,-0.918 -5.769,-0.322 -12.278,-0.68 -19.379,-0.985 -14.2,-0.626 -30.767,-1.173 -48.518,-1.537 -4.438,-0.079 -8.949,-0.16 -13.517,-0.241 -4.566,-0.081 -9.189,-0.14 -13.849,-0.175 -9.319,-0.112 -18.786,-0.12 -28.253,-0.148 -9.468,0.029 -18.935,0.044 -28.253,0.156 -4.66,0.033 -9.283,0.102 -13.85,0.178 -4.567,0.082 -9.079,0.164 -13.517,0.244 -17.75,0.366 -34.318,0.913 -48.518,1.537 -7.101,0.302 -13.609,0.663 -19.379,0.981 -5.769,0.287 -10.798,0.645 -14.939,0.914 C 8.875,-0.735 5.621,-0.444 3.402,-0.286 1.184,-0.1 0,0 0,0"
             style="fill:#80206b;fill-opacity:1;fill-rule:nonzero;stroke:none"
             id="path214"
             inkscape:connector-curvature="0" /></g><g
           id="g216"
           transform="translate(5002.8906,812.3037)"><path
             d="m 0,0 c 0,0 0.506,0.1 1.453,0.286 0.947,0.161 2.336,0.442 4.105,0.713 3.536,0.567 8.588,1.265 14.651,1.885 6.063,0.624 13.137,1.171 20.715,1.537 1.894,0.107 3.821,0.175 5.771,0.244 1.95,0.076 3.924,0.145 5.912,0.178 3.979,0.112 8.022,0.127 12.063,0.156 4.043,-0.028 8.084,-0.036 12.062,-0.148 1.991,-0.035 3.963,-0.094 5.914,-0.175 1.95,-0.073 3.875,-0.133 5.77,-0.241 7.579,-0.364 14.652,-0.911 20.715,-1.537 6.063,-0.622 11.115,-1.323 14.652,-1.893 1.769,-0.274 3.158,-0.554 4.106,-0.717 C 128.836,0.1 129.341,0 129.341,0 c 0,0 -0.505,-0.1 -1.452,-0.288 -0.948,-0.163 -2.337,-0.443 -4.106,-0.717 -3.537,-0.57 -8.589,-1.271 -14.652,-1.893 -6.063,-0.626 -13.136,-1.173 -20.715,-1.537 -1.895,-0.108 -3.82,-0.168 -5.77,-0.241 -1.951,-0.081 -3.923,-0.14 -5.914,-0.175 -3.978,-0.112 -8.019,-0.12 -12.062,-0.148 -4.041,0.029 -8.084,0.044 -12.063,0.156 -1.988,0.033 -3.962,0.102 -5.912,0.178 -1.95,0.069 -3.877,0.137 -5.771,0.244 -7.578,0.366 -14.652,0.913 -20.715,1.537 C 14.146,-2.264 9.094,-1.566 5.558,-0.999 3.789,-0.728 2.4,-0.447 1.453,-0.286 0.506,-0.1 0,0 0,0"
             style="fill:#80206b;fill-opacity:1;fill-rule:nonzero;stroke:none"
             id="path218"
             inkscape:connector-curvature="0" /></g><g
           id="g220"
           transform="translate(2340.1279,806.7686)"><path
             d="m 0,0 c 0,0 29.019,0.36 79.803,0.989 25.391,0.254 56.224,0.562 91.592,0.914 35.366,0.285 75.268,0.605 118.796,0.955 43.529,0.267 90.685,0.555 140.561,0.861 49.877,0.214 102.475,0.439 156.886,0.673 27.205,0.082 54.863,0.166 82.862,0.251 27.999,0.059 56.338,0.119 84.904,0.18 57.131,0.057 115.169,0.115 173.208,0.174 58.038,-0.057 116.076,-0.113 173.207,-0.169 28.567,-0.058 56.906,-0.116 84.905,-0.173 27.998,-0.085 55.657,-0.169 82.863,-0.252 54.41,-0.233 107.008,-0.457 156.885,-0.671 49.876,-0.305 97.032,-0.594 140.56,-0.861 43.53,-0.351 83.43,-0.673 118.797,-0.958 35.367,-0.354 66.2,-0.663 91.592,-0.918 C 1828.204,0.362 1857.224,0 1857.224,0 c 0,0 -29.02,-0.362 -79.803,-0.995 -25.392,-0.255 -56.225,-0.564 -91.592,-0.918 -35.367,-0.285 -75.267,-0.607 -118.797,-0.958 -43.528,-0.267 -90.684,-0.556 -140.56,-0.861 -49.877,-0.214 -102.475,-0.438 -156.885,-0.671 -27.206,-0.083 -54.865,-0.167 -82.863,-0.252 -27.999,-0.057 -56.338,-0.115 -84.905,-0.173 -57.131,-0.056 -115.169,-0.112 -173.207,-0.169 -58.039,0.059 -116.077,0.117 -173.208,0.174 -28.566,0.061 -56.905,0.121 -84.904,0.18 -27.999,0.085 -55.657,0.169 -82.862,0.251 -54.411,0.234 -107.009,0.459 -156.886,0.673 -49.876,0.306 -97.032,0.594 -140.561,0.861 -43.528,0.35 -83.43,0.67 -118.796,0.955 -35.368,0.352 -66.201,0.66 -91.592,0.914 C 29.019,-0.36 0,0 0,0"
             style="fill:#80206b;fill-opacity:1;fill-rule:nonzero;stroke:none"
             id="path222"
             inkscape:connector-curvature="0" /></g></g></g></g></svg>